<svg width="25" height="25" viewBox="0 0 25 25" fill="none" xmlns="http://www.w3.org/2000/svg">
<path fill-rule="evenodd" clip-rule="evenodd" d="M7.79819 22.3958H16.4939C19.6879 22.3958 22.1383 21.2421 21.4424 16.5987L20.6319 10.3058C20.2028 7.98884 18.725 7.10211 17.4282 7.10211H6.82564C5.50985 7.10211 4.11779 8.05559 3.62198 10.3058L2.81153 16.5987C2.22038 20.7177 4.60406 22.3958 7.79819 22.3958Z" stroke="#1D1E20" stroke-width="1.5" stroke-linecap="round" stroke-linejoin="round"/>
<path d="M7.65517 6.87335C7.65517 4.38786 9.67005 2.37297 12.1555 2.37297C13.3524 2.36789 14.502 2.8398 15.3501 3.68434C16.1982 4.52887 16.675 5.67647 16.675 6.87335" stroke="#1D1E20" stroke-width="1.5" stroke-linecap="round" stroke-linejoin="round"/>
<path d="M9.0663 11.5644H9.11398" stroke="#1D1E20" stroke-width="1.5" stroke-linecap="round" stroke-linejoin="round"/>
<path d="M15.1399 11.5644H15.1876" stroke="#1D1E20" stroke-width="1.5" stroke-linecap="round" stroke-linejoin="round"/>
</svg>
