<svg width="19" height="21" viewBox="0 0 19 21" fill="none" xmlns="http://www.w3.org/2000/svg">
<path d="M17.9444 6.02393L11.6111 0.763932C11.0306 0.271977 10.279 0 9.50003 0C8.72111 0 7.96951 0.271977 7.38894 0.763932L1.05565 6.02393C0.720373 6.30801 0.452825 6.65649 0.270818 7.04618C0.0888123 7.43586 -0.00347545 7.85781 0.00010006 8.28393V17.0239C0.00010006 17.8196 0.333728 18.5826 0.927589 19.1453C1.52145 19.7079 2.3269 20.0239 3.16674 20.0239H15.8333C16.6732 20.0239 17.4786 19.7079 18.0725 19.1453C18.6663 18.5826 19 17.8196 19 17.0239V8.27393C19.002 7.84949 18.909 7.42947 18.7271 7.04161C18.5451 6.65375 18.2784 6.30689 17.9444 6.02393ZM11.6111 18.0239H7.38894V13.0239C7.38894 12.7587 7.50015 12.5044 7.6981 12.3168C7.89605 12.1293 8.16453 12.0239 8.44448 12.0239H10.5556C10.8355 12.0239 11.104 12.1293 11.302 12.3168C11.4999 12.5044 11.6111 12.7587 11.6111 13.0239V18.0239ZM16.8889 17.0239C16.8889 17.2891 16.7777 17.5435 16.5797 17.731C16.3818 17.9186 16.1133 18.0239 15.8333 18.0239H13.7222V13.0239C13.7222 12.2283 13.3886 11.4652 12.7947 10.9026C12.2009 10.34 11.3954 10.0239 10.5556 10.0239H8.44448C7.60464 10.0239 6.79919 10.34 6.20533 10.9026C5.61147 11.4652 5.27784 12.2283 5.27784 13.0239V18.0239H3.16674C2.8868 18.0239 2.61831 17.9186 2.42036 17.731C2.22241 17.5435 2.1112 17.2891 2.1112 17.0239V8.27393C2.11139 8.13195 2.14349 7.99163 2.20537 7.86231C2.26725 7.73299 2.35749 7.61764 2.47008 7.52393L8.80337 2.27393C8.996 2.11361 9.24363 2.0252 9.50003 2.0252C9.75643 2.0252 10.0041 2.11361 10.1967 2.27393L16.53 7.52393C16.6426 7.61764 16.7328 7.73299 16.7947 7.86231C16.8566 7.99163 16.8887 8.13195 16.8889 8.27393V17.0239Z" fill="#8F959E"/>
</svg>
