<svg width="14" height="14" viewBox="0 0 14 14" fill="none" xmlns="http://www.w3.org/2000/svg">
<path fill-rule="evenodd" clip-rule="evenodd" d="M2.47284 6.06158C2.48125 3.5879 4.49337 1.5894 6.96705 1.5978C9.44074 1.60621 11.4392 3.61833 11.4308 6.09203V6.14272C11.4004 7.75068 10.5025 9.23695 9.40183 10.3985C8.7723 11.0522 8.06932 11.631 7.3069 12.1232C7.10303 12.2995 6.80063 12.2995 6.59675 12.1232C5.46013 11.3833 4.46255 10.4493 3.64965 9.36377C2.92513 8.41713 2.51377 7.26814 2.47284 6.0768V6.06158Z" stroke="#FEFEFE" stroke-width="1.2" stroke-linecap="round" stroke-linejoin="round"/>
<path d="M6.9518 7.5833C7.74461 7.5833 8.38731 6.9406 8.38731 6.14779C8.38731 5.35498 7.74461 4.71228 6.9518 4.71228C6.159 4.71228 5.5163 5.35498 5.5163 6.14779C5.5163 6.9406 6.159 7.5833 6.9518 7.5833Z" stroke="#FEFEFE" stroke-width="1.2" stroke-linecap="round" stroke-linejoin="round"/>
</svg>
