<svg width="19" height="19" viewBox="0 0 19 19" fill="none" xmlns="http://www.w3.org/2000/svg">
<path d="M9.5 0C7.65395 0.0035044 5.84875 0.543307 4.3043 1.55366C2.75984 2.56401 1.54279 4.0013 0.801372 5.69046C0.0599567 7.37963 -0.173817 9.24776 0.128525 11.0673C0.430867 12.8869 1.25628 14.5793 2.50421 15.9385C3.39551 16.9038 4.47725 17.6741 5.68129 18.2011C6.88532 18.728 8.18554 19 9.5 19C10.8145 19 12.1147 18.728 13.3187 18.2011C14.5227 17.6741 15.6045 16.9038 16.4958 15.9385C17.7437 14.5793 18.5691 12.8869 18.8715 11.0673C19.1738 9.24776 18.94 7.37963 18.1986 5.69046C17.4572 4.0013 16.2402 2.56401 14.6957 1.55366C13.1512 0.543307 11.3461 0.0035044 9.5 0ZM9.5 17.1177C7.5283 17.1147 5.63463 16.3477 4.21747 14.978C4.64772 13.9315 5.37966 13.0364 6.32025 12.4064C7.26085 11.7765 8.36764 11.4401 9.5 11.4401C10.6324 11.4401 11.7392 11.7765 12.6797 12.4064C13.6203 13.0364 14.3523 13.9315 14.7825 14.978C13.3654 16.3477 11.4717 17.1147 9.5 17.1177ZM7.59638 7.60786C7.59638 7.23169 7.70803 6.86396 7.9172 6.55119C8.12637 6.23841 8.42368 5.99463 8.77152 5.85068C9.11936 5.70672 9.50211 5.66906 9.87138 5.74244C10.2406 5.81583 10.5798 5.99698 10.8461 6.26297C11.1123 6.52897 11.2936 6.86786 11.367 7.23681C11.4405 7.60575 11.4028 7.98818 11.2587 8.33571C11.1146 8.68325 10.8706 8.9803 10.5576 9.18929C10.2445 9.39828 9.8765 9.50983 9.5 9.50983C8.99513 9.50983 8.51094 9.30944 8.15394 8.95276C7.79694 8.59607 7.59638 8.1123 7.59638 7.60786ZM16.077 13.3138C15.2266 11.8604 13.9177 10.73 12.3554 10.0994C12.8401 9.5504 13.1558 8.8733 13.2648 8.14939C13.3739 7.42548 13.2715 6.68552 12.9701 6.01829C12.6686 5.35107 12.1808 4.78493 11.5653 4.3878C10.9498 3.99068 10.2327 3.77944 9.5 3.77944C8.76731 3.77944 8.05018 3.99068 7.43466 4.3878C6.81915 4.78493 6.3314 5.35107 6.02995 6.01829C5.72849 6.68552 5.62613 7.42548 5.73515 8.14939C5.84417 8.8733 6.15995 9.5504 6.64458 10.0994C5.08228 10.73 3.77342 11.8604 2.92301 13.3138C2.24527 12.1603 1.88717 10.8474 1.88554 9.50983C1.88554 7.4921 2.68777 5.55701 4.11576 4.13026C5.54375 2.70351 7.48052 1.90197 9.5 1.90197C11.5195 1.90197 13.4562 2.70351 14.8842 4.13026C16.3122 5.55701 17.1145 7.4921 17.1145 9.50983C17.1128 10.8474 16.7547 12.1603 16.077 13.3138Z" fill="#8F959E"/>
</svg>
