<svg width="9" height="9" viewBox="0 0 9 9" fill="none" xmlns="http://www.w3.org/2000/svg">
<path d="M3.84005 0.560086C3.97571 -0.171725 5.02429 -0.171724 5.15995 0.560086C5.257 1.08357 5.8957 1.2911 6.28191 0.924632C6.82181 0.412324 7.67013 1.02867 7.34974 1.70045C7.12055 2.181 7.51529 2.72432 8.04314 2.65485C8.78106 2.55772 9.10509 3.55499 8.45102 3.91015C7.98314 4.16421 7.98314 4.83579 8.45102 5.08985C9.10509 5.44501 8.78106 6.44228 8.04314 6.34515C7.51529 6.27568 7.12055 6.819 7.34974 7.29955C7.67013 7.97133 6.82181 8.58768 6.28191 8.07537C5.8957 7.7089 5.257 7.91643 5.15995 8.43991C5.02429 9.17172 3.97571 9.17172 3.84005 8.43991C3.74301 7.91643 3.1043 7.7089 2.71809 8.07537C2.17819 8.58768 1.32987 7.97133 1.65026 7.29955C1.87945 6.819 1.48471 6.27568 0.956855 6.34515C0.218941 6.44228 -0.10509 5.44501 0.548982 5.08985C1.01686 4.83579 1.01686 4.16421 0.548982 3.91015C-0.10509 3.55499 0.218942 2.55772 0.956856 2.65485C1.48471 2.72432 1.87945 2.181 1.65026 1.70045C1.32987 1.02867 2.17819 0.412324 2.71809 0.924632C3.1043 1.2911 3.74301 1.08357 3.84005 0.560086Z" fill="#4AC76D"/>
</svg>
